<?xml version="1.0" standalone="no"?>
<!DOCTYPE svg PUBLIC "-//W3C//DTD SVG 20010904//EN"
 "http://www.w3.org/TR/2001/REC-SVG-20010904/DTD/svg10.dtd">
<svg version="1.0" xmlns="http://www.w3.org/2000/svg"
 width="980.000000pt" height="980.000000pt" viewBox="0 0 980.000000 980.000000"
 preserveAspectRatio="xMidYMid meet">
<metadata>
Created by potrace 1.14, written by Peter Selinger 2001-2017
</metadata>
<g transform="translate(0.000000,980.000000) scale(0.100000,-0.100000)"
fill="#000000" stroke="none">
<path d="M9304 9476 c-253 -110 -643 -281 -1300 -570 l-401 -177 -133 76
c-1004 577 -2092 767 -3190 559 -1213 -230 -2273 -943 -2953 -1986 -380 -583
-607 -1201 -703 -1915 l-18 -133 -121 0 c-67 0 -204 -3 -303 -7 l-182 -6 0
-424 0 -423 103 0 c56 0 192 -3 303 -7 l201 -6 12 -96 c110 -855 418 -1607
924 -2256 701 -898 1718 -1505 2837 -1694 275 -47 392 -55 745 -56 368 0 467
7 762 56 581 95 1075 281 1688 634 l30 18 790 -346 c871 -380 1113 -484 1141
-489 15 -2 32 23 86 131 84 170 180 406 176 435 -3 23 -40 41 -1033 476 -302
132 -553 244 -557 248 -5 5 74 93 174 197 205 215 313 341 444 521 781 1073
1048 2449 729 3751 -127 516 -341 996 -649 1453 -162 241 -298 407 -543 661
-90 94 -163 173 -161 174 2 1 242 107 533 235 1079 473 1065 467 1065 494 0
45 -220 553 -247 569 -5 3 -117 -40 -249 -97z m-3664 -641 c433 -60 793 -167
1215 -360 57 -26 76 -39 65 -45 -8 -4 -244 -108 -525 -230 -280 -122 -817
-357 -1192 -521 -375 -164 -684 -299 -686 -299 -3 0 -8 92 -12 205 l-7 205
-434 0 -434 0 0 -1235 0 -1235 -1221 0 -1222 0 7 63 c61 535 319 1232 629
1697 311 465 746 890 1212 1183 482 303 1153 533 1708 587 148 14 762 4 897
-15z m2052 -907 c123 -96 369 -341 502 -502 926 -1124 1166 -2627 635 -3983
-238 -605 -634 -1157 -1131 -1575 -102 -86 -89 -85 -225 -29 -300 124 -1165
507 -1207 534 -26 18 -70 128 -221 559 -54 153 -103 285 -110 294 -11 15 -18
8 -58 -62 -26 -43 -92 -175 -149 -291 -58 -120 -108 -213 -116 -213 -14 0
-379 156 -827 353 l-280 123 -2 505 c-2 277 1 1070 5 1762 l7 1258 250 110
c1902 837 2800 1227 2827 1229 3 0 48 -32 100 -72z m-4062 -4693 l0 -1235 435
0 435 0 0 188 c0 103 3 197 6 208 6 24 26 16 519 -204 268 -120 295 -133 295
-143 0 -6 -22 -58 -49 -117 -26 -59 -80 -178 -120 -264 -39 -87 -71 -162 -71
-168 0 -5 8 -10 18 -10 16 0 359 115 717 240 l150 53 365 -160 c447 -196 600
-266 600 -273 0 -10 -366 -159 -514 -209 -297 -101 -646 -174 -965 -202 -175
-15 -645 -6 -801 15 -758 105 -1411 383 -2003 855 -170 135 -463 429 -601 601
-443 554 -728 1205 -836 1910 -11 69 -20 131 -20 138 0 9 251 12 1220 12
l1220 0 0 -1235z"/>
</g>
</svg>
